<?xml version="1.0" encoding="UTF-8"?> <!-- Generator: Adobe Illustrator 25.3.1, SVG Export Plug-In . SVG Version: 6.00 Build 0) --> <svg xmlns="http://www.w3.org/2000/svg" xmlns:xlink="http://www.w3.org/1999/xlink" version="1.1" id="Capa_1" x="0px" y="0px" width="396.7px" height="131.2px" viewBox="0 0 396.7 131.2" style="enable-background:new 0 0 396.7 131.2;" xml:space="preserve"> <style type="text/css"> .st0{stroke:#000000;stroke-width:3;stroke-miterlimit:10;} </style> <path class="st0" d="M128.1,91c0,7.9,4.9,11.4,11.4,13.8l7,2.5c4.3,1.6,6.8,3.2,6.8,6.9c0,4.3-3.9,6.3-9.5,6.3 c-5.7,0-11-2.1-15.4-5.5v8.6c3.4,2.3,8.9,4.2,15.4,4.2c9.9,0,17.4-4.9,17.4-13.6c0-7-3.5-11.2-11-14l-7.8-2.8 c-4-1.4-6.4-2.8-6.4-6.4c0-3.9,3.6-5.8,8.6-5.8c5.7,0,10.1,2.1,14.2,5.2v-8.4c-3.9-2.5-8.8-3.9-14.3-3.9 C135.6,77.9,128.1,82.5,128.1,91"></path> <rect x="182.6" y="78.7" class="st0" width="8.2" height="48.2"></rect> <rect x="34.3" y="78.7" class="st0" width="8.2" height="48.2"></rect> <path class="st0" d="M223.2,86h10.1c10.2,0,15.6,6.5,15.6,16.8c0,10.3-5.5,16.8-15.6,16.8h-10.1V86z M215,78.7v48.2h18.6 c14.3,0,23.6-9.5,23.6-24.1s-9.2-24.1-23.6-24.1C233.6,78.7,215,78.7,215,78.7z"></path> <polygon class="st0" points="274.5,78.7 274.5,126.9 303.9,126.9 303.9,119.7 282.6,119.7 282.6,104.7 301.7,104.7 301.7,97.5 282.6,97.5 282.6,86 303.9,86 303.9,78.7 "></polygon> <path class="st0" d="M336.7,85.8h9.2c5.5,0,8.6,2.9,8.6,7.4c0,4.5-3.1,7.4-8.6,7.4h-9.2V85.8z M328.5,78.7v48.2h8.2v-19.6h5.8 l16.9,19.6h9.3l-17.5-19.9c7.7-1.2,11.3-5.8,11.3-13.9c0-9.5-6.5-14.5-16.5-14.5C346.1,78.7,328.5,78.7,328.5,78.7z"></path> <path class="st0" d="M112.8,16.8c0,8.1,4.9,11.6,11.4,14l7.1,2.5c4.4,1.6,6.8,3.2,6.8,7.1c0,4.4-3.9,6.4-9.5,6.4 c-5.8,0-11.1-2.1-15.5-5.7v8.7c3.4,2.4,9,4.3,15.5,4.3c9.9,0,17.5-4.9,17.5-13.9c0-7.1-3.5-11.4-11.2-14.2l-7.9-2.9 c-4-1.4-6.4-2.9-6.4-6.4c0-4,3.7-5.9,8.6-5.9c5.8,0,10.2,2.1,14.2,5.3V7.5c-3.9-2.5-8.9-4-14.4-4C120.3,3.4,112.8,8.2,112.8,16.8"></path> <path class="st0" d="M361.7,16.7c0,8.1,4.9,11.6,11.4,14l7.1,2.5c4.4,1.6,6.8,3.2,6.8,7.1c0,4.4-3.9,6.4-9.5,6.4 c-5.8,0-11.1-2.1-15.5-5.7v8.7c3.4,2.4,9,4.3,15.5,4.3c9.9,0,17.5-4.9,17.5-13.9c0-7.1-3.5-11.4-11.2-14.2l-7.9-2.9 c-4-1.4-6.4-2.9-6.4-6.4c0-4,3.7-5.9,8.6-5.9c5.8,0,10.2,2.1,14.2,5.3V7.4c-3.9-2.5-8.9-4-14.4-4C369.2,3.4,361.7,8.2,361.7,16.7"></path> <path class="st0" d="M311.7,16.7c0,8.1,4.9,11.6,11.4,14l7.1,2.5c4.4,1.6,6.8,3.2,6.8,7.1c0,4.4-3.9,6.4-9.5,6.4 c-5.8,0-11.1-2.1-15.5-5.7v8.7c3.4,2.4,9,4.3,15.5,4.3c9.9,0,17.5-4.9,17.5-13.9c0-7.1-3.5-11.4-11.2-14.2L326,23 c-4-1.4-6.4-2.9-6.4-6.4c0-4,3.6-5.9,8.6-5.9c5.8,0,10.2,2.1,14.2,5.3V7.4c-3.9-2.5-8.9-4-14.4-4C319.2,3.4,311.7,8.2,311.7,16.7"></path> <polygon class="st0" points="263.2,4.3 263.2,53.2 292.8,53.2 292.8,45.8 271.3,45.8 271.3,30.6 290.6,30.6 290.6,23.4 271.3,23.4 271.3,11.6 292.8,11.6 292.8,4.3 "></polygon> <path class="st0" d="M9.5,31.7H20c5.5,0,8.6,2.7,8.6,7.2c0,4.4-3,7.2-8.6,7.2H9.5V31.7z M9.5,11.4h9c5.7,0,8.7,2,8.7,6.6 s-3,6.8-8.7,6.8h-9V11.4z M1.5,4.3v49h18.7c10.2,0,16.6-4.9,16.6-14c0-5.2-3.4-9.7-7.9-11.2c3.6-1.3,6.4-5.1,6.4-10.3 c0-8.8-6.4-13.4-16.6-13.4H1.5z"></path> <rect x="167.6" y="4.3" class="st0" width="8.3" height="49"></rect> <path class="st0" d="M85.4,4.3v28.6c0,9.4-4,13.8-11.3,13.8c-7.3,0-11.3-4.5-11.3-13.8V4.3h-8.3v29.4c0,13.5,8,20.3,19.6,20.3 c11.7,0,19.6-6.8,19.6-20.3V4.3H85.4z"></path> <polygon class="st0" points="233.1,4.3 233.1,35.6 199.5,3.5 199.5,53.2 207.4,53.2 207.4,21.4 241.1,54 241.1,4.3 "></polygon> <polygon class="st0" points="66.1,126.9 74,126.9 74,95.5 107.4,127.7 107.4,78.7 99.5,78.7 99.5,109.5 66.1,77.9 "></polygon> </svg> 