<?xml version="1.0" encoding="UTF-8"?> <!-- Generator: Adobe Illustrator 25.2.1, SVG Export Plug-In . SVG Version: 6.00 Build 0) --> <svg xmlns:cc="http://creativecommons.org/ns#" xmlns:dc="http://purl.org/dc/elements/1.1/" xmlns:inkscape="http://www.inkscape.org/namespaces/inkscape" xmlns:rdf="http://www.w3.org/1999/02/22-rdf-syntax-ns#" xmlns:sodipodi="http://sodipodi.sourceforge.net/DTD/sodipodi-0.dtd" xmlns:svg="http://www.w3.org/2000/svg" xmlns="http://www.w3.org/2000/svg" xmlns:xlink="http://www.w3.org/1999/xlink" version="1.1" id="svg2" inkscape:version="0.48.4 r9939" sodipodi:docname="New document 1" x="0px" y="0px" width="1175.9px" height="358.2px" viewBox="0 0 1175.9 358.2" style="enable-background:new 0 0 1175.9 358.2;" xml:space="preserve"> <g id="layer1" transform="translate(89.312494,-287.74999)" inkscape:groupmode="layer" inkscape:label="Layer 1"> <g id="g3017" transform="matrix(16.779609,0,0,16.779609,-89.326214,287.74733)"> <path id="path3003" inkscape:connector-curvature="0" d="M10.5,0C4.7,0,0,4.8,0,10.6c0,5.9,4.7,10.7,10.5,10.7 c5.9,0,10.5-4.8,10.5-10.7C21.1,4.8,16.5,0,10.5,0z M10.5,4.5c4.8,0,8.3,3,9.8,6.1c-1.5,3.1-5,6.2-9.8,6.2c-4.8,0-8.3-3.1-9.8-6.2 C2.2,7.6,5.7,4.5,10.5,4.5L10.5,4.5L10.5,4.5z M10.5,5c-3.1,0-5.7,2.5-5.7,5.6c0,3.2,2.5,5.7,5.7,5.7s5.6-2.5,5.6-5.7 C16.2,7.5,13.7,5,10.5,5z"></path> <path id="path3005" inkscape:connector-curvature="0" d="M31.1,1.3c-5.5,0-9.4,4.2-9.4,9.3v0.1c0,5.2,3.9,9.2,9.2,9.2 c3.5,0,5.5-1.2,7.4-3.2l-2.5-2.5c-1.4,1.3-2.7,2.1-4.7,2.1c-3.1,0-5.2-2.6-5.2-5.7v0c0-3.1,2.2-5.6,5.2-5.6c1.8,0,3.2,0.8,4.6,2 L38.2,4C36.6,2.4,34.5,1.3,31.1,1.3z"></path> <path id="path3007" inkscape:connector-curvature="0" d="M39.9,1.6v18h8.5c4,0,6.7-1.6,6.7-4.9v-0.1c0-2.4-1.3-3.6-3.4-4.4 c1.3-0.7,2.4-1.8,2.4-3.9v0c0-1.2-0.4-2.2-1.2-3.1c-1-1-2.6-1.6-4.7-1.6H39.9z M43.7,5h3.9c1.7,0,2.6,0.7,2.6,1.8v0.1 c0,1.3-1.1,1.9-2.9,1.9l-3.6,0V5L43.7,5z M43.7,12.1h4.6c2,0,2.9,0.8,2.9,2v0.1c0,1.3-1.1,1.9-2.8,1.9l-4.7,0V12.1L43.7,12.1z"></path> <path id="path3009" inkscape:connector-curvature="0" d="M62.9,1.3c-3.7,0-6.3,2.2-6.3,5.4v0c0,3.6,2.3,4.6,6,5.5 c3,0.8,3.6,1.3,3.6,2.3v0.1c0,1-1,1.7-2.6,1.7c-2.1,0-3.7-0.8-5.4-2.2l-2.3,2.8c2.2,1.9,4.9,2.9,7.6,2.9v0c3.9,0,6.6-2,6.6-5.6v0 c0-3.1-2.1-4.4-5.7-5.4c-3.1-0.8-3.9-1.2-3.9-2.4v0c0-0.9,0.8-1.6,2.3-1.6c1.5,0,3.1,0.7,4.7,1.8l2-3C67.7,2.1,65.5,1.3,62.9,1.3z "></path> </g> </g> </svg> 