<?xml version="1.0" encoding="UTF-8"?> <!-- Generator: Adobe Illustrator 25.4.1, SVG Export Plug-In . SVG Version: 6.00 Build 0) --> <svg xmlns="http://www.w3.org/2000/svg" xmlns:xlink="http://www.w3.org/1999/xlink" version="1.1" id="Capa_1" x="0px" y="0px" width="200px" height="200px" viewBox="0 0 200 200" style="enable-background:new 0 0 200 200;" xml:space="preserve"> <style type="text/css"> .st0{fill:none;} </style> <g> <g> <path d="M165.3,169.6c-0.8,0-1.7-0.3-2.4-1c-1.3-1.4-1.3-3.5,0-4.8c33.7-33.2,35.7-87.1,4.8-122.7c-26.7-31-71-39.8-107.6-21.6 c-1.7,0.8-3.7,0.1-4.5-1.5c-0.8-1.7-0.1-3.7,1.5-4.5C96.4-6,144,3.4,172.8,36.5c33.4,38.4,31.1,96.3-5.1,131.9 C167,169.3,166.2,169.6,165.3,169.6z"></path> <g> <path d="M163.7,137.9L163.7,137.9c1.5,0,2.6,1.2,2.6,2.6v23.8l23.8-1.7c1.5-0.1,2.7,1.1,2.9,2.5l0,0c0.1,1.5-1.1,2.7-2.5,2.9 l-26.6,1.9c-1.6,0.1-2.9-1.2-2.9-2.6v-26.7C161.1,139.2,162.2,137.9,163.7,137.9z"></path> </g> </g> <g> <path d="M100.1,196.5c-27.3,0-54-11.5-72.8-33.2c-33.4-38.4-31.2-96.4,5-132c1.4-1.3,3.5-1.3,4.8,0c1.3,1.4,1.3,3.5,0,4.8 c-33.8,33.1-35.8,87-4.8,122.8c26.8,30.9,71.1,39.7,107.7,21.5c1.7-0.8,3.7-0.1,4.5,1.5c0.8,1.7,0.1,3.7-1.5,4.5 C129.3,193.2,114.6,196.5,100.1,196.5z"></path> <g> <path d="M36.3,62.1L36.3,62.1c-1.5,0-2.6-1.2-2.6-2.6V35.6L9.9,37.3c-1.5,0.1-2.7-1.1-2.9-2.5l0,0c-0.1-1.5,1.1-2.7,2.5-2.9 L36.2,30c1.6-0.1,2.9,1.2,2.9,2.6v26.7C38.9,60.8,37.8,62.1,36.3,62.1z"></path> </g> </g> <path class="st0" d="M100,174.1c3.2,0,6-0.8,8-1.9H92C94,173.3,96.7,174.1,100,174.1z"></path> <path d="M114.6,57.2c0.3,0,0.5,0,0.8-0.1l-30.1,0.1c0,0,0.1,0,0.1,0H114.6z"></path> <path d="M120.1,50.4H118V25.3c0-1.9-1.5-3.4-3.4-3.4H85.4c-1.9,0-3.4,1.5-3.4,3.4v25.1h-2.1c-3.7,0-6.7,3-6.7,6.7v108.4 c0,3.7,3,6.7,6.7,6.7h5c2.1,4.2,8,7.1,15.1,7.1c7.1,0,13-2.9,15.1-7.1h5c3.7,0,6.6-3.1,6.7-6.7V57.1 C126.8,53.4,123.8,50.4,120.1,50.4z M88.8,28.6h22.5v21.8H88.8V28.6z M100,174.1c-3.2,0-6-0.8-8-1.9h15.9 C106,173.3,103.2,174.1,100,174.1z M120,165.4l-4.7,0l-6.8,0l-16.8,0l-6.9,0l-4.7,0V57.2l5.3,0l30.1-0.1l4.6,0V165.4z"></path> <path d="M94.4,36.4h-3.7c-0.7,0-1.2,0.6-1.2,1.2v3.7c0,0.7,0.6,1.2,1.2,1.2h3.7c0.6,0,1.2-0.5,1.2-1.2v-3.7 C95.6,36.9,95,36.4,94.4,36.4z"></path> <path d="M109.3,36.4h-3.7c-0.7,0-1.2,0.6-1.2,1.2v3.7c0,0.7,0.6,1.2,1.2,1.2h3.7c0.6,0,1.1-0.5,1.2-1.2v-3.7 C110.5,36.9,109.9,36.4,109.3,36.4z"></path> </g> </svg> 