<?xml version="1.0" encoding="UTF-8"?> <!-- Generator: Adobe Illustrator 25.4.1, SVG Export Plug-In . SVG Version: 6.00 Build 0) --> <svg xmlns="http://www.w3.org/2000/svg" xmlns:xlink="http://www.w3.org/1999/xlink" version="1.1" id="Capa_1" x="0px" y="0px" width="200px" height="200px" viewBox="0 0 200 200" style="enable-background:new 0 0 200 200;" xml:space="preserve"> <style type="text/css"> .st0{fill:none;} </style> <g> <path class="st0" d="M93.5,79.1c0-1.9,1.2-3.4,2.7-3.4H122V51.1H5.2v77.4h88.2V79.1z"></path> <path class="st0" d="M142.3,77.4c0.2,0,0.3-0.2,0.3-0.4c0-0.2-0.2-0.4-0.3-0.4c-0.2,0-0.3,0.2-0.3,0.4 C141.9,77.2,142.1,77.4,142.3,77.4z"></path> <polygon class="st0" points="96,78.9 96,128.5 96,132.2 96,140.5 188.6,140.5 188.6,140.5 188.6,78.9 188.6,78.9 125.7,78.9 122,78.9 "></polygon> <path class="st0" d="M136.5,148.3H148c0.6,0,1.1-0.6,1.1-1.4h-13.8C135.4,147.6,135.9,148.3,136.5,148.3z"></path> <path d="M86.1,145.3c0,3.3,2.1,5.9,4.8,5.9h102.9c2.6,0,4.8-2.6,4.8-5.9H86.1z M148,148.3h-11.5c-0.6,0-1.1-0.6-1.1-1.4h13.8 C149.2,147.6,148.7,148.3,148,148.3z"></path> <path d="M79,143.2c-0.2-0.3-0.4-0.7-0.4-1.1v-10h14.8v8.1c0,1.9,1.2,3.4,2.7,3.4h92.2c1.5,0,2.7-1.5,2.7-3.4V79.1 c0-1.9-1.2-3.4-2.7-3.4h-62.7v-24c0-2.5-1.8-4.5-4.1-4.5H5.6c-2.2,0-4.1,2-4.1,4.5v75.9c0,2.5,1.8,4.5,4.1,4.5h43v10 c0,0.4-0.1,0.8-0.4,1.1l-5.5,7.1c-0.1,0.1-0.2,0.3-0.2,0.5v1.3c0,0.3,0.2,0.5,0.5,0.5h41.1c0.3,0,0.5-0.2,0.5-0.5v-1.3 c0-0.2-0.1-0.4-0.2-0.5L79,143.2z M142.3,76.5c0.2,0,0.3,0.2,0.3,0.4c0,0.2-0.2,0.4-0.3,0.4c-0.2,0-0.3-0.2-0.3-0.4 C141.9,76.7,142.1,76.5,142.3,76.5z M188.6,78.9L188.6,78.9v61.7c0,0,0,0,0,0H96v-8.3v-3.7V78.9h26h3.7H188.6z M5.2,128.5V51.1H122 v24.7H96.2c-1.5,0-2.7,1.5-2.7,3.4v49.4H5.2z"></path> </g> </svg> 