<?xml version="1.0" encoding="UTF-8"?> <!-- Generator: Adobe Illustrator 25.3.1, SVG Export Plug-In . SVG Version: 6.00 Build 0) --> <svg xmlns="http://www.w3.org/2000/svg" xmlns:xlink="http://www.w3.org/1999/xlink" version="1.1" id="Layer_1" x="0px" y="0px" width="100px" height="100px" viewBox="0 0 100 100" style="enable-background:new 0 0 100 100;" xml:space="preserve"> <g> <path d="M42.5,14.3c0.1,0.9,0.3,3,0.1,3.5c-0.1,0.5-1.1,2.1-1.6,1.6c-0.5-0.4-0.8,1.3-1.2,1.9c-0.4,0.6-2.4,0.9-3.1,0.9 c-0.7,0.1-2.8-1.1-2.9-1.6c-0.1-0.5,1.3-1.6,1.9-1.7c0.5-0.1,2.2-1.1,2.2-1.7c-0.1-0.6-0.5-1.5-1.1-1.5c-0.4,0,0-1.4,0.3-2.5 c2.3-1.3,4.8-2.3,7.3-3.1L42.5,14.3z"></path> <path d="M71,81.1c-0.1,0.5,2.7,0.8,3.7,0.2c1-0.6,2.9-6.3,3-7.8c0.1-0.6-1.9-0.8-2.1-0.4c-0.2,0.4-2,3.3-1.9,3.9 C73.7,77.5,71.1,80.7,71,81.1z"></path> <path d="M37.8,85.6c-0.8-0.1-3.4-2.9-6.1-6c-2.6-3-5.3-6.3-6.2-7.1c-0.9-0.8-1.8-2.1-2.5-3.1c-0.7-1-1.3-1.9-1.5-2.1 c-0.1-0.1-0.5-0.2-1-0.2c-0.2,0-0.4,0-0.7,0c-0.3,0-0.7,0-1-0.1c-0.6-1.3-1.1-2.7-1.5-4c0.3-0.1,0.5-0.3,0.8-0.4 c0.9-0.5,1.8-1,2.9-1.5c1.6-0.8,3.3-1.7,5.1-2.5c0.4,0.4,0.7,0.6,1,0.9c0.5,0.4,0.9,0.7,2,1.3c1.1,0.6,0.8-0.3,1.9,0 c1.1,0.3,5,2.1,5.4,2.7c0.5,0.6,0,1.2,0.4,2.1c0.4,0.9,1.2,2,0,2c-1.1,0.1-4,1.1-4.9,1.9C31,70.2,31.4,70.3,32,71 c0.6,0.6,0.3,0.9,0.7,1.4c0.4,0.5,1.4,1.1,1.3,1.3c-0.1,0.2-0.6,0.2-1,0.3c-0.4,0.1-0.8,0.3-0.6,0.7c0.2,0.5,1,2.1,1.9,3.7 c0.9,1.6,1.8,3.3,2.1,4c0.4,0.7,1.2,1.5,1.6,2.2C38.5,85.2,38.6,85.7,37.8,85.6z"></path> <path d="M38.1,31.6c-0.3,0.1-2,0.7-3.9,1.2c-1.9,0.5-3.9,1-4.6,1.1c-0.7,0.1,0,0.8,0.8,1.5c0.8,0.7,1.8,1.5,1.6,1.7 c-0.2,0.2-0.6,0.6-1,0.8c-0.2,0.3,0.1,1.1-0.8,1.4c-0.9,0.3-0.8,0.7-1.6,1.3c-0.9,0.6-3.3,2.7-3.9,3.3c-0.6,0.6-0.6,0.5-0.5,1.3 c0.2,0.8,0.7,0.1,0.7,1.1c0,1.1,0,3.1-0.5,3.7c-0.5,0.6-1.9,1.5-2.8,1.6c-1,0.1-1.3-0.5-0.9-0.9c0.5-0.9,1.5-2.2,1.4-2.4 c-0.1-0.1-0.2-0.5-0.9-0.5c-0.6,0-1.3,0-1.5-0.1c-0.2-0.1-0.5-0.5-0.9-0.9c-0.3-0.4-0.9-0.3-1-0.2c-0.1,0.1-0.2,0.4-0.7,1.3 c-0.5,1-1.2,2.1-1.9,2.9c0-0.1,0-0.3,0-0.4c0-0.1,0-0.3,0-0.4c0-7,1.7-13.7,4.8-19.5c3.1-5.8,7.4-10.8,12.8-14.6 c-0.3,1.5-1.4,3.3-2.4,4.8c-1,1.5-2,2.7-1.9,3.2c0.1,0.6,0.2,1.9,0.3,3.1c0.1,1.2,0.3,2.3,0.5,2.3c0.3,0.1,1.1-1.3,1.9-2.8 c0.8-1.5,1.6-3,2-3.2c0.4-0.2,0.6,0.3,0.8,0.8c0.2,0.6,0.4,1.2,0.7,1.2c0.3,0,1-0.2,1.7-0.3c0.6-0.1,1.2-0.2,1.1,0 c-0.1,0.2-0.2,1.1-0.4,2.1c-0.1,1-0.2,2.1,0,2.9c0.2,0.7,0.5,1.1,0.8,1.2C38.2,31.4,38.4,31.4,38.1,31.6z"></path> <path d="M92.3,27.1C88,20.5,81.9,15.2,74.7,11.9c-0.2,0.7-0.4,1.4-0.4,2.2c-0.1,0.7,0,1.3,0.3,1.7c0.5,0.5,0.5,1.1,0.2,1.5 c-0.3,0.4-0.9,0.7-1.5,0.7c-0.6,0-1.4,0.7-2.1,1.3c-0.7,0.7-1.2,1.4-1.4,1.6c-0.1,0.2-0.2,1.1-0.4,2.1c-0.2,0.9-0.4,1.9-0.9,2.4 c-0.5,0.4-1.3,0.9-2,1.2c-0.7,0.3-1.4,0.4-1.5,0.2c-0.1-0.2-0.4-0.7-0.7-1.2c-0.3-0.5-0.5-1-0.4-1.2c0-0.2,0.9-0.6,1.8-1.1 c0.9-0.4,1.8-0.8,1.8-0.8s-0.1-0.5-0.3-1.1c-0.2-0.6-0.6-1.3-1.1-1.5c-0.6-0.3-1-0.8-1.4-1.2c-0.4-0.4-0.8-0.8-1.1-0.7 c-0.4,0.1-1.1,0.3-1.9,0.7c-0.8,0.3-1.6,0.7-2,0.8c-1,0.3-3,0.1-5.1-0.1c-2-0.2-4-0.4-5-0.1c-0.5,0.2-0.7,0.4-0.9,0.7 c-0.1,0.3-0.1,0.6-0.2,1c-0.1,0.4,0,0.7,0.2,0.9c0.3,0.2,0.7,0.3,1.4,0.4c0.6,0.1,1.2,0,1.6,0.1c0.4,0.1,0.7,0.2,0.7,0.6 c0,0.2-0.4,1-0.9,1.9c-0.5,0.8-1,1.6-1.2,1.7c-0.2,0.1-0.1,0.3,0.1,0.5c0.2,0.2,0.5,0.4,0.7,0.6c0.2,0.2,0.3,0.5,0.3,0.7 c0.1,0.2,0.2,0.4,0.4,0.4c0.2,0,1.1-0.3,1.9-0.5c0.8-0.3,1.6-0.6,1.6-0.7c0-0.1,0.1-0.7,0.2-1.3c0.1-0.6,0.3-1.2,0.4-1.3 c0.1-0.1,0.6,0,1.2,0.2c0.6,0.2,1.2,0.5,1.5,0.6c0.4,0.2,0.7,0.8,0.9,1.8c0.2,0.9-0.1,0.4,0,1.4c0.1,1,0.6,0.3,0.8,0.8 c0.2,0.5,0.7,1.6,0.5,1.7c-0.1,0.2-0.5,2.1-1.3,2.3c-0.8,0.3-1.8-1.2-2.3-1c-0.5,0.2-1.1-1.1-1.2-1.7c-0.1-0.6,0-1.3,0-1.6 c0-0.3-0.1-0.7-0.3-0.9c-0.2-0.3-0.4,2.4-0.8,2.3c-0.3-0.1-0.7,0.1-1,0.4c-0.3,0.3-0.6,0.7-0.7,0.9c-0.1,0.2,0,0.9,0.1,1.6 c0.1,0.7,0.3,1.5,0.4,1.9c0.1,0.4-0.1,0.8-0.4,1.1c-0.1,0.2-0.3,0.3-0.5,0.4c0,0,0,0,0,0c3.2-1.1,6.4-2.2,9.6-3.3 c1.8-0.6,3.8-1.3,6-1.9c1.1-0.3,2.1-0.7,3.2-1l-2-7l22.7,5.7l0.6,0.1l-0.3,0.3L81.5,41.8L79,44.3L76.4,47l-1-3.4l-1-3.6 c-0.6,0.2-1.3,0.4-1.9,0.6c-0.3,0.1-0.6,0.2-0.9,0.3c-2.1,0.7-4,1.3-5.8,1.9c-0.1,0-0.1,0-0.2,0.1h0c0,0,0,0,0,0c0,0,0.1,0,0.1,0 c0.3,0,0.7,0.8,1.1,1.7c0.4,0.9,0.8,1.8,1.2,2.1c0.4,0.3,1.2,0,1.9-0.4c0.7-0.4,1.3-0.7,1.4-0.5c0.1,0.2,0.1,1.2,0,2.1 c-0.1,0.9-0.3,1.8-0.6,1.9c-0.3,0-1.4,0.2-2.6,0.5c-1.2,0.3-2.5,0.6-3.3,0.9c-0.8,0.3-1,0.7-1.1,1c-0.1,0.3-0.1,0.5-0.4,0.4 c-0.3-0.1-1.4-0.5-2.5-1c-1-0.5-2-1.1-2.3-1.4c-0.2-0.4-0.2-0.7-0.3-0.9c0-0.3,0-0.5-0.2-0.7c-0.2-0.2-2,0-4,0.2 c-1.9,0.2-4,0.4-4.5,0.4c-0.6,0-1.2,0.9-1.8,1.9c-0.6,1-1,2.2-1.3,2.7c-0.2,0.5-0.6,0.1-1.5,0.9c-0.8,0.8-1.8,1.3-1.5,2.3 c0.3,0.9-0.2,4-0.3,5.4c-0.1,1.4-0.2,2.5,0.3,2.7c0.5,0.2,1.5,1.2,2.8,2.1c1.3,0.9,2.7,1.7,4.2,1.4c1.5-0.2,2.9-0.3,4.1,0 c1.2,0.2,2,0.6,2.4,1.3c0.4,0.6,0.6,1.5,0.8,2.5c0.1,1,0.1,2.1-0.1,3.2c-0.2,1.1-0.2,2.5-0.2,3.8c-0.1,1.3-0.2,2.5-0.8,3.3 c-0.6,0.8-0.5,1.8-0.1,2.6c0.4,0.8,1,1.6,1.4,1.9c0.3,0.3,2.9-1,5.5-2.7c2.6-1.7,5.2-3.7,5.6-4.8c0.4-1,1-2.6,1.6-4.2 c0.6-1.6,1.2-3.2,1.6-4.1c0.4-0.9,1.7-2,2.8-3.1c1.1-1.1,2.1-2,1.8-2.7c-0.1-0.3-1.5-1.3-3-2.3c-1.4-1-2.9-1.9-3.1-1.9 c-0.2-0.1-0.6-2-0.9-4c-0.3-2-0.5-3.9-0.4-4c0.1-0.1,0.4-0.3,0.7-0.4c0.3-0.1,0.6-0.2,0.8-0.1c0.2,0.1,0.7,0.6,1.1,1.1 c0.4,0.5,0.8,1,0.9,1.1c0,0.1,0.4,1.3,0.7,2.6c0.3,1.3,0.6,2.6,0.5,2.8c-0.1,0.2,0.3,0.4,0.7,0.3c0.5-0.1,1-0.4,1.3-1 c0.3-0.6,1-1.7,1.7-2.6c0.7-0.9,1.2-1.6,1.2-1.6c0.5-0.1,2.1,0.5,3.3,0.4c1.1,0,1.4,0.4,1.5,0.2c0.1-0.2,0.2-1.6-0.3-1.9 c-0.4-0.3-1-0.7-1.4-0.9c-0.4-0.2-1.2-1.5-1.8-2.7c-0.6-1.2-1.1-2.4-1-2.5c0.2-0.1,0.8,0.1,1.4,0.3c0.6,0.2,1.2,0.5,1.5,0.6 c0.2,0.1,1.1,0.9,1.9,1.8c0.8,0.9,2.1,2.6,2.4,3c0.3,0.3,0.3-0.1,0.8,0.2c0.4,0.3,0.2,0.8,0.3,1.1c0.1,0.2,1.2,1.8,1.8,3.7 c0.6,1.9,1.2,3.9,1.4,4.1c0.2,0.2,0.8-1,1.6-2.5c0.8-1.5,1.8-3.1,2.9-3.7c0.5-0.3,1.1-0.7,1.7-1.2c0.6-0.5,1.3-1.1,1.9-1.6 c0.1-0.6,0.1-1.2,0.1-1.8c0-0.6,0-1.2,0-1.8C99.2,41.6,96.6,33.7,92.3,27.1z"></path> <path d="M60.8,44.4c0.8,1,1.5,1.8,1.8,1.6c0.3-0.2,0.4-0.8,0.5-1.4c0-0.4,0-0.7,0.1-1C62.3,43.9,61.6,44.2,60.8,44.4L60.8,44.4 C60.8,44.4,60.8,44.4,60.8,44.4z"></path> <path d="M75.1,11.1c-5.6-2.6-11.7-4-18-4C33.5,7.1,14.2,26.4,14.2,50c0,1.1,0,2.2,0.1,3.4c0,0.1,0,0.3,0,0.4 c0.3-0.2,0.6-0.3,0.9-0.5c0.3-0.2,0.6-0.3,0.9-0.5c-0.1-0.9-0.1-1.9-0.1-2.8c0-0.1,0-0.2,0-0.3c0,0,0,0,0,0 c0.1-13.2,6.4-24.9,16.2-32.3C39.2,12.2,47.8,9,57.1,9c6,0,11.8,1.3,17.2,3.8c7.8,3.6,14.1,9.6,18.3,16.8c0.1,0.2,0.2,0.3,0.3,0.5 c3.3,6,5.2,12.8,5.2,19.9c0,1.3-0.1,2.5-0.2,3.7C97,63.9,92.3,73.3,84.8,80.2C77.2,87.1,67.4,91,57.1,91 c-12.2,0-23.6-5.4-31.4-14.7c-0.3-0.3-0.6-0.7-0.9-1.1c-0.3-0.3-0.5-0.7-0.8-1.1c-1-1.4-1.9-2.8-2.7-4.3c-0.2-0.4-0.4-0.7-0.6-1.1 c-0.2-0.4-0.4-0.7-0.6-1.1c-0.1-0.2-0.2-0.4-0.3-0.6c-0.7-1.4-1.2-2.9-1.7-4.4c0-0.1,0-0.1-0.1-0.2c-0.3,0.2-0.5,0.3-0.8,0.4 c0,0,0,0-0.1,0c-0.3,0.2-0.6,0.3-0.8,0.5c0.5,1.6,1.2,3.2,1.9,4.7c0.1,0.1,0.1,0.2,0.2,0.3c0.2,0.4,0.4,0.8,0.6,1.1 c0.1,0.3,0.3,0.5,0.4,0.8c0.1,0.1,0.1,0.2,0.2,0.3c0.8,1.4,1.6,2.7,2.6,4.1c0.1,0.1,0.2,0.3,0.3,0.4c0.3,0.4,0.6,0.7,0.8,1.1 c0.2,0.2,0.3,0.4,0.5,0.7c0.1,0.2,0.2,0.3,0.4,0.5c8.2,9.8,20.2,15.4,32.9,15.4c10.8,0,21.1-4,29-11.3c7.9-7.2,12.7-17.1,13.7-27.7 c0.1-1.2,0.2-2.6,0.2-3.9C100,33.3,90.2,18.1,75.1,11.1z"></path> <path d="M73.3,27.2l1.5,5.3l-2.2,0.7c-1.1,0.3-2.1,0.7-3.2,1c-2.2,0.7-4.1,1.3-5.9,1.9c-4.7,1.6-9.3,3.2-13.7,4.8 c-1,0.4-1.9,0.7-2.8,1.1c-4.9,1.9-9.6,3.7-13.9,5.6l-0.5,0.2c-0.5,0.2-0.9,0.4-1.4,0.6c-5,2.2-9.5,4.3-13.5,6.4 c-0.6,0.3-1.3,0.7-1.9,1c0,0,0,0,0,0c0,0-0.1,0-0.1,0.1c0,0-0.1,0-0.1,0.1c0,0,0,0,0,0C3.9,62.2-1.1,67.1,0.2,71.2 c0.7,2.1,2.9,4.9,14.2,4.3c2.6-0.1,5.5-0.4,8.8-0.8c-1-1.4-2-2.9-2.8-4.4c-8.6,1-12.6,0.5-14.3,0.1l-1.8-0.5l1.2-1.4 c1.3-1.5,4.5-4.2,11.1-7.9c1-0.5,2-1.1,3.1-1.7c1.3-0.7,2.7-1.4,4.1-2.1c0.9-0.5,1.9-0.9,2.8-1.4c0.9-0.4,1.8-0.8,2.7-1.3 c1.1-0.5,2.3-1,3.5-1.6c0.4-0.2,0.9-0.4,1.3-0.6l0.5-0.2c4.1-1.7,8.5-3.5,13.2-5.3l0,0c0.2-0.1,0.3-0.1,0.5-0.2 c1.5-0.6,3.1-1.2,4.6-1.7c2-0.7,4.1-1.5,6.2-2.2c1.8-0.6,3.7-1.3,5.6-1.9c1.8-0.6,3.8-1.2,5.9-1.9c1.1-0.3,2.1-0.7,3.2-1l2.1-0.6 l0.5,1.7l1,3.7l1.4-1.4l9.6-9.9L73.3,27.2z"></path> </g> </svg> 