<?xml version="1.0" encoding="UTF-8"?> <!-- Generator: Adobe Illustrator 25.4.1, SVG Export Plug-In . SVG Version: 6.00 Build 0) --> <svg xmlns="http://www.w3.org/2000/svg" xmlns:xlink="http://www.w3.org/1999/xlink" version="1.1" id="Layer_1" x="0px" y="0px" width="100px" height="100px" viewBox="0 0 100 100" style="enable-background:new 0 0 100 100;" xml:space="preserve"> <style type="text/css"> .st0{fill:none;stroke:#231F20;stroke-width:8.093429e-02;stroke-miterlimit:2.6131;} .st1{fill-rule:evenodd;clip-rule:evenodd;} </style> <g> <path class="st0" d="M97.1,75.2c1.2,0,2.2-1.1,2.2-2.3c0-1.2-1.1-2.3-2.2-2.3c-1.2,0-2.2,1.1-2.2,2.3 C94.8,74.2,95.8,75.2,97.1,75.2 M96.4,74.4v-2.5h1.1 M98.1,74.3L97.5,73 M96.4,73h1.1 M97.5,73c0.3,0,0.5-0.3,0.5-0.6 c0-0.4-0.3-0.6-0.5-0.6"></path> <path class="st1" d="M97.2,61.7c-1.2,2.6-1.7,3.8-3.3,6.1c-2.1,3.3-5.1,7.3-8.8,7.3c-3.3,0-4.1-2.1-8.6-2.1s-5.4,2.2-8.7,2.1 c-3.7,0-6.5-3.6-8.6-6.9c-6-9-6.5-19.7-2.9-25.3c2.6-4,6.7-6.3,10.6-6.3c3.9,0,6.4,2.2,9.7,2.2c3.2,0,5.1-2.2,9.6-2.2 c3.5,0,7.1,1.9,9.7,5.1C87.2,46.3,88.6,58.4,97.2,61.7L97.2,61.7z"></path> <path class="st1" d="M82.6,32.9c1.6-2.1,2.9-5.1,2.5-8.2c-2.7,0.2-5.9,1.9-7.7,4.1c-1.6,2-3.1,5.1-2.5,8 C77.8,36.9,80.9,35.1,82.6,32.9L82.6,32.9z"></path> </g> <g> <polyline points="0,34.6 17.6,32.2 17.6,49.2 0,49.2 "></polyline> <polyline points="19.7,31.8 43,28.4 43,49 19.7,49 "></polyline> <polyline points="0,51 17.6,51 17.6,68 0,65.6 "></polyline> <polyline points="19.7,51.2 43,51.2 43,71.6 19.7,68.3 "></polyline> </g> </svg> 