<?xml version="1.0" encoding="UTF-8"?> <!-- Generator: Adobe Illustrator 25.4.1, SVG Export Plug-In . SVG Version: 6.00 Build 0) --> <svg xmlns="http://www.w3.org/2000/svg" xmlns:xlink="http://www.w3.org/1999/xlink" version="1.1" id="Capa_1" x="0px" y="0px" width="200px" height="200px" viewBox="0 0 200 200" style="enable-background:new 0 0 200 200;" xml:space="preserve"> <style type="text/css"> .st0{fill:none;} .st1{fill:#231F20;} </style> <g> <path class="st0" d="M46.3,135.4c-0.5,0.2-1,0.4-1.5,0.5C45.3,135.7,45.8,135.6,46.3,135.4z"></path> <path class="st0" d="M58.8,133.8c-0.1,0-0.2,0-0.4,0C58.6,133.8,58.7,133.8,58.8,133.8z"></path> <path class="st0" d="M56.2,133.7c-2.7,0-5.4,0.4-7.9,1.1c2.4-0.6,4.9-1,7.5-1C55.9,133.7,56.1,133.7,56.2,133.7z"></path> <path class="st0" d="M44.2,136.2c-0.3,0.2-0.7,0.3-1,0.5C43.5,136.5,43.8,136.4,44.2,136.2z"></path> <path class="st0" d="M48.3,134.8c-0.6,0.2-1.2,0.3-1.7,0.5C47.1,135.1,47.7,134.9,48.3,134.8z"></path> <path class="st0" d="M83.3,163.8c0-7-2.7-13.4-7.1-18.2c-1-1.1-2.1-2.1-3.2-3c-1.4-1.2-3-2.2-4.7-3c-2-1-4.2-1.8-6.5-2.3 c-1-0.2-2-0.4-3-0.5c-0.9-0.1-1.7-0.1-2.6-0.1c-0.1,0-0.3,0-0.4,0c-5.3,0.1-10.2,1.7-14.3,4.4c0,0,0,0,0,0c-2.2,1.5-4.2,3.2-6,5.3 c-4,4.7-6.4,10.8-6.4,17.4s2.4,12.7,6.4,17.4c1.5,1.8,3.3,3.4,5.2,4.8c4.4,3.1,9.7,4.9,15.5,4.9s11.1-1.8,15.5-4.9 c1.3-0.9,2.5-1.9,3.6-3c0.9-0.9,1.8-1.9,2.6-3C81.3,175.5,83.3,169.9,83.3,163.8z M67.2,174.8c-1.5,1.6-4,1.6-5.6,0l-5.4-5.4 l-5.4,5.4c-1.5,1.6-4,1.6-5.6,0c-1.6-1.5-1.6-4,0-5.6l5.4-5.4l-5.4-5.4c-1.6-1.5-1.6-4,0-5.6c1.5-1.6,4-1.6,5.6,0l5.4,5.4l5.4-5.4 c1.5-1.6,4-1.6,5.6,0c1.5,1.6,1.5,4.1,0,5.6l-5.4,5.4l5.4,5.4C68.8,170.7,68.8,173.2,67.2,174.8z"></path> <path class="st0" d="M135.6,41.4V9.1H61.8v19.3h56.1c0.9-0.1,1.9,0.2,2.6,0.9l35.3,35.3c0.8,0.8,1,1.9,0.8,2.9v87.2h14.3V44.4 h-32.3C136.9,44.4,135.6,43.1,135.6,41.4z"></path> <path class="st0" d="M150.6,69.7h-32.3c-1.7,0-3-1.3-3-3V34.4H61.8h-3h-3H41.5v99.7c4.4-2.2,9.4-3.4,14.7-3.4 c8.7,0,16.7,3.4,22.6,8.9h55c1.7,0,3,1.3,3,3c0,1.7-1.4,3-3,3H83.9c3.4,5.2,5.4,11.5,5.4,18.2c0,5.9-1.6,11.4-4.2,16.2h65.6v-19.3 v-3v-3V69.7z M58.4,106.9H96c1.7,0,3,1.3,3,3c0,1.7-1.3,3-3,3H58.4c-1.7,0-3-1.3-3-3C55.4,108.2,56.7,106.9,58.4,106.9z M133.8,129.2H58.4c-1.7,0-3-1.3-3-3c0-1.7,1.3-3,3-3h75.4c1.7,0,3,1.3,3,3C136.8,127.9,135.4,129.2,133.8,129.2z"></path> <path class="st0" d="M70.6,137.4c-0.2-0.1-0.5-0.3-0.7-0.4C70.1,137.1,70.4,137.3,70.6,137.4z"></path> <polygon class="st0" points="146.3,63.7 121.2,38.6 121.2,63.7 "></polygon> <path class="st0" d="M72.4,138.4c-0.2-0.1-0.4-0.2-0.6-0.4C72,138.2,72.2,138.3,72.4,138.4z"></path> <polygon class="st0" points="166.7,38.4 141.6,13.3 141.6,38.4 "></polygon> <path class="st0" d="M64.9,135c-1.4-0.4-2.9-0.8-4.4-1c0.4,0.1,0.8,0.1,1.3,0.2C62.9,134.4,63.9,134.7,64.9,135z"></path> <path class="st0" d="M68.3,136.2c-0.4-0.2-0.8-0.3-1.1-0.5C67.5,135.9,67.9,136.1,68.3,136.2z"></path> <path class="st0" d="M66.5,135.5c-0.4-0.2-0.9-0.3-1.3-0.4C65.6,135.2,66.1,135.4,66.5,135.5z"></path> <path class="st1" d="M58.4,112.9H96c1.7,0,3-1.3,3-3c0-1.7-1.3-3-3-3H58.4c-1.7,0-3,1.3-3,3C55.4,111.6,56.7,112.9,58.4,112.9z"></path> <path class="st1" d="M133.8,123.2H58.4c-1.7,0-3,1.3-3,3c0,1.7,1.3,3,3,3h75.4c1.6,0,3-1.3,3-3 C136.8,124.5,135.5,123.2,133.8,123.2z"></path> <path class="st1" d="M176.9,41.3c0-0.1,0-0.1,0-0.2c0-0.2-0.1-0.4-0.1-0.6c0,0,0,0,0-0.1c0-0.1-0.1-0.2-0.1-0.3 c0-0.1-0.1-0.1-0.1-0.2c0-0.1-0.1-0.2-0.1-0.2c-0.1-0.1-0.2-0.3-0.3-0.4L140.8,3.9c-0.7-0.6-1.7-0.9-2.6-0.8H58.8c-1.7,0-3,1.3-3,3 v22.3H38.5c-1.7,0-3,1.3-3,3V138c-7.6,6.1-12.4,15.4-12.4,25.8c0,18.3,14.8,33.1,33.1,33.1c9.7,0,18.5-4.2,24.5-10.9h72.9 c1.6,0,3-1.3,3-3v-22.3h17.3c1.7,0,3-1.3,3-3L176.9,41.3C176.9,41.4,176.9,41.3,176.9,41.3z M170.9,154.7h-14.3V67.5 c0.2-1.1,0-2.1-0.8-2.9l-35.3-35.3c-0.7-0.7-1.7-1-2.6-0.9H61.8V9.1h73.8v32.3c0,1.7,1.3,3,3,3h32.3V154.7z M150.6,160.7V180H85 c2.7-4.8,4.2-10.3,4.2-16.2c0-6.7-2-13-5.4-18.2h49.9c1.6,0,3-1.3,3-3c0-1.7-1.3-3-3-3h-55c-5.9-5.5-13.8-8.9-22.6-8.9 c-5.3,0-10.3,1.2-14.7,3.4V34.4h14.3h3h3h53.5v32.3c0,1.7,1.3,3,3,3h32.3v85v3V160.7z M71.7,186c-4.4,3.1-9.7,4.9-15.5,4.9 s-11.1-1.8-15.5-4.9c-1.9-1.4-3.7-3-5.2-4.8c-4-4.7-6.4-10.8-6.4-17.4s2.4-12.7,6.4-17.4c1.7-2,3.7-3.8,6-5.3c0,0,0,0,0,0 c4.1-2.7,9-4.3,14.3-4.4c0.1,0,0.3,0,0.4,0c0.9,0,1.7,0.1,2.6,0.1c1,0.1,2,0.3,3,0.5c2.3,0.5,4.5,1.3,6.5,2.3 c1.7,0.8,3.2,1.8,4.7,3c1.1,0.9,2.2,1.9,3.2,3c4.4,4.8,7.1,11.2,7.1,18.2c0,6.1-2,11.7-5.4,16.2c-0.8,1.1-1.7,2.1-2.6,3 C74.2,184.1,73,185.1,71.7,186z M43.1,136.7c0.3-0.2,0.7-0.3,1-0.5C43.8,136.4,43.5,136.5,43.1,136.7z M44.8,135.9 c0.5-0.2,1-0.4,1.5-0.5C45.8,135.6,45.3,135.7,44.8,135.9z M46.5,135.3c0.6-0.2,1.1-0.4,1.7-0.5C47.7,134.9,47.1,135.1,46.5,135.3z M48.3,134.8c2.5-0.7,5.2-1.1,7.9-1.1c-0.1,0-0.3,0-0.4,0C53.2,133.7,50.7,134.1,48.3,134.8z M58.4,133.8c0.1,0,0.2,0,0.4,0 C58.7,133.8,58.6,133.8,58.4,133.8z M60.5,134c1.5,0.2,3,0.6,4.4,1c-1-0.3-2.1-0.6-3.1-0.8C61.4,134.2,61,134.1,60.5,134z M65.2,135.1c0.4,0.1,0.9,0.3,1.3,0.4C66.1,135.4,65.6,135.2,65.2,135.1z M67.2,135.8c0.4,0.1,0.8,0.3,1.1,0.5 C67.9,136.1,67.5,135.9,67.2,135.8z M69.9,137c0.2,0.1,0.5,0.2,0.7,0.4C70.4,137.3,70.1,137.1,69.9,137z M71.8,138.1 c0.2,0.1,0.4,0.2,0.6,0.4C72.2,138.3,72,138.2,71.8,138.1z M146.3,63.7h-25.1V38.6L146.3,63.7z M166.7,38.4h-25.1V13.3L166.7,38.4z "></path> <path class="st1" d="M61.8,163.8l5.4-5.4c1.5-1.5,1.5-4,0-5.6c-1.6-1.6-4.1-1.6-5.6,0l-5.4,5.4l-5.4-5.4c-1.6-1.6-4.1-1.6-5.6,0 c-1.6,1.6-1.6,4.1,0,5.6l5.4,5.4l-5.4,5.4c-1.6,1.6-1.6,4.1,0,5.6c1.6,1.6,4.1,1.6,5.6,0l5.4-5.4l5.4,5.4c1.6,1.6,4.1,1.6,5.6,0 c1.6-1.6,1.6-4.1,0-5.6L61.8,163.8z"></path> </g> </svg> 