<?xml version="1.0" encoding="UTF-8"?> <!-- Generator: Adobe Illustrator 25.4.1, SVG Export Plug-In . SVG Version: 6.00 Build 0) --> <svg xmlns="http://www.w3.org/2000/svg" xmlns:xlink="http://www.w3.org/1999/xlink" version="1.1" id="Capa_1" x="0px" y="0px" width="200px" height="200px" viewBox="0 0 200 200" style="enable-background:new 0 0 200 200;" xml:space="preserve"> <style type="text/css"> .st0{fill:#0B0B0B;} .st1{fill:#121212;} .st2{fill:#181818;} .st3{fill:#0D0D0D;} .st4{fill:#0F0F0F;} </style> <g> <path class="st0" d="M81.6,154.9c-40.2-0.1-72.7-33-72.6-73.5c0.1-40.2,33-72.6,73.7-72.5c40.2,0.1,72.4,33.2,72.3,74.4 C154.8,122.5,121.6,155,81.6,154.9z M82.5,17C46.3,17,17.2,46,17,82.2c-0.1,35.4,29.4,64.6,65.3,64.7c35.1,0.1,64.7-29.7,64.5-64.8 C146.7,46.4,117.6,17.1,82.5,17z"></path> <path class="st1" d="M191,174.9c-0.6,6.8-3.5,11.7-9.4,14.5c-6.5,3-12.8,1.9-17.7-2.8c-12-11.5-23.6-23.4-35.4-35.2 c-2-2-2.7-4.2-0.5-6.4c2.4-2.5,4.7-1.2,6.8,0.8c9.9,9.9,19.8,19.8,29.7,29.8c1.7,1.7,3.4,3.5,5.3,5c3.6,3,7.3,2.8,10.5-0.5 c3-3,3.5-6.8,0.5-10c-5.5-5.9-11.2-11.5-16.8-17.2c-1.1-1.2-2.1-1.3-3.2,0c-1,1.1-2.1,2.2-3.1,3.2c-2.1,2.1-4.4,3-6.8,0.5 c-2.1-2.3-1.1-4.4,0.8-6.4c0.1-0.1,0.3-0.2,0.4-0.4c10.7-10.1,8.5-12.3,20.5-0.1c4.6,4.7,9.2,9.3,13.8,14 C189.5,166.7,190.6,170.8,191,174.9z"></path> <path class="st2" d="M158.2,137c0.1,3.2-2.9,5.4-5.6,3.9c-3.4-2-6.2-4.8-8.3-8c-1.9-2.8,0.4-6.2,3.8-6 C150.7,127,158.1,134.4,158.2,137z"></path> <path class="st3" d="M81.5,126.5c-9.7,0-19.5,0-29.2,0c-8.5,0-11.4-3.6-10.2-12c1.1-8.5,6-13,14.3-15c11.8-2.9,11-2.8,6.7-14.1 C59,74.9,57.4,63.4,57.6,52c0.1-9.7,9-11.2,16.1-13.8c4.8-1.8,9.6-0.4,14.4,0.5c3.5,0.7,6.9,2,10.5,1.7c3.9-0.4,5.6,1.8,5.9,5.1 c1.3,15.3,2,30.6-5.7,44.8c-2.2,4.1-1.2,6.5,3.2,7.7c3.2,0.9,6.5,1.6,9.7,2.7c7.5,2.7,12.4,12,10.4,19.6c-1.3,4.9-5,6.2-9.5,6.2 C102.1,126.5,91.8,126.5,81.5,126.5C81.5,126.5,81.5,126.5,81.5,126.5z M96.5,72.7c1.2-4-1.3-5.8-5.3-6.5c-4.6-0.8-9-2.1-13.7-2.5 c-8.5-0.7-9.2-0.2-9.9,8.4c-0.7,9.5,6,18.9,13.9,19.4c7.7,0.5,14.4-7.1,14.9-17C96.4,74.1,96.4,73.7,96.5,72.7z M80.6,44.9 c-5.9-0.3-9.5,2.8-13.7,4.2c-2.1,0.7-2.3,3.4-1.9,5.4c0.5,2.3,2.5,0.8,3.8,0.9c8.2,0.5,16.4,1.3,24.3,3.5c1.5,0.4,4.3,3.1,4.9-0.4 c0.5-3.5,2.1-8.5-2.2-10.2C90.7,46.2,84.9,45.8,80.6,44.9z M63.7,118.9c3.5,0,7.1,0.1,10.6,0c1.5,0,3.7,0.8,3.9-1.8 c0.1-1.9,0.7-4-1.7-5.4c-3.3-1.8-6.2-4.1-9.6-5.7c-5.4-2.5-16.1,2.7-17.3,8.3c-0.6,2.8-0.8,5.2,3.5,4.8 C56.6,118.6,60.2,118.9,63.7,118.9z M99.9,118.9C99.9,118.9,99.9,118.9,99.9,118.9c1.5,0,3,0,4.5,0c1.7,0,3.3,0,5,0 c5.3,0,6.6-2.4,4-7.1c-1-1.8-2.3-3.2-4.4-4.1c-7.3-3.2-16.9-1.2-22.3,4.5c-1.5,1.6-1.3,3.5-1,5.2c0.3,2.2,2.3,1.4,3.6,1.4 C92.9,118.9,96.4,118.9,99.9,118.9z M75,97.6c-0.4,0.2-1.3,0.3-1.6,0.8c-0.5,0.7-0.5,1.7,0.1,2.6c3.2,4.8,13.3,4.9,17,0.2 c0.7-0.9,0.7-1.7,0.3-2.5c-0.3-0.8-1.1-1.1-1.8-0.9C84.3,99.3,79.8,99.5,75,97.6z"></path> <path class="st4" d="M98.6,28.4c1.1,0.3,2.2,0.5,3.2,0.9c14.4,6.1,25,16,30.9,30.7c1.1,2.7,2.5,5.7-1.1,7.2c-3.4,1.5-4.8-1-6-3.9 c-5.4-12.6-14.4-21.6-27.2-26.7c-2.2-0.8-4.2-2-3.7-4.8C95,29.7,96.6,28.8,98.6,28.4z"></path> </g> </svg> 