<?xml version="1.0" encoding="UTF-8"?> <!-- Generator: Adobe Illustrator 25.2.1, SVG Export Plug-In . SVG Version: 6.00 Build 0) --> <svg xmlns="http://www.w3.org/2000/svg" xmlns:xlink="http://www.w3.org/1999/xlink" version="1.1" id="Layer_1" x="0px" y="0px" width="100px" height="100px" viewBox="0 0 100 100" style="enable-background:new 0 0 100 100;" xml:space="preserve"> <style type="text/css"> .st0{fill-rule:evenodd;clip-rule:evenodd;} </style> <path class="st0" d="M79.33,92.4v-1.7c0-4.56-2.65-8.47-6.5-10.46c2.82-1.95,6.25-3.11,9.96-3.11c8.97,0,16.34,6.69,17.21,15.26 H79.33z M87.98,65.27c0,3.75-3.1,6.78-6.92,6.78c-3.82,0-6.92-3.04-6.92-6.78c0-3.75,3.1-6.78,6.92-6.78 C84.88,58.48,87.98,61.52,87.98,65.27z M84.63,46.61l-8.42-6.85l-8.37,6.85l2.58-8.9l-7.75-8.04H73l3.2-8.54l3.26,8.54H89.8 l-7.75,8.04L84.63,46.61z M60.97,41.52l-10.18-8.48h-1.7l-10.18,8.48l3.39-11.87L32.14,19.47h13.57L49.1,7.6h0.85h0.85l3.39,11.87 h13.57L57.58,29.65L60.97,41.52z M27.78,37.7l2.58,8.9l-8.43-6.85l-8.37,6.85l2.58-8.9l-7.75-8.04h10.34l3.2-8.54l3.26,8.54h10.34 L27.78,37.7z M11.79,65.27c0-3.75,3.04-6.78,6.78-6.78c3.75,0,6.78,3.04,6.78,6.78c0,3.75-3.04,6.78-6.78,6.78 C14.82,72.05,11.79,69.01,11.79,65.27z M26.64,80.24c-3.77,1.99-6.37,5.9-6.37,10.46v1.7H0c0.85-8.57,8.08-15.26,16.87-15.26 C20.51,77.14,23.88,78.29,26.64,80.24z M38.92,54.24c0-6.09,4.94-11.02,11.02-11.02c6.09,0,11.02,4.94,11.02,11.02 c0,6.09-4.94,11.03-11.02,11.03C43.86,65.27,38.92,60.33,38.92,54.24z M49.95,70.35c12.36,0,22.4,9.8,22.85,22.05H27.09 C27.54,80.15,37.59,70.35,49.95,70.35z"></path> </svg> 