<?xml version="1.0" encoding="UTF-8"?> <!-- Generator: Adobe Illustrator 25.3.1, SVG Export Plug-In . SVG Version: 6.00 Build 0) --> <svg xmlns="http://www.w3.org/2000/svg" xmlns:xlink="http://www.w3.org/1999/xlink" version="1.1" id="Capa_1" x="0px" y="0px" width="549px" height="152.3px" viewBox="0 0 549 152.3" style="enable-background:new 0 0 549 152.3;" xml:space="preserve"> <style type="text/css"> .st0{fill:#5F01D1;} </style> <g id="layer1" transform="translate(260.95542,41.213839)"> <path id="path1139" class="st0" d="M-261-4.1h32.7l19,48.7L-190-4.1h31.8l-47.9,115.2h-32l13.1-30.5L-261-4.1z"></path> <path id="path1141" class="st0" d="M-125.1-6.1c-24.5,0-40.1,22-40.1,43.9c0,24.7,17,44.2,39.6,44.2c16.8,0,23.2-10.3,23.2-10.3v8 h28.5V-4.1h-28.5v7.6C-102.4,3.5-109.4-6.1-125.1-6.1z M-119,20.9c11.3,0,17.2,9,17.2,17c0,8.7-6.3,17.2-17.2,17.2 c-9,0-17.2-7.4-17.2-16.9C-136.2,28.7-129.7,20.9-119,20.9z"></path> <path id="path1145" class="st0" d="M-64.1,79.8v-121h29.8v45c0,0,7.1-9.8,21.9-9.8C5.7-6,16.4,7.5,16.4,26.8v53h-29.6V34 c0-6.5-3.1-12.8-10.2-12.8c-7.2,0-10.9,6.4-10.9,12.8v45.8C-34.3,79.8-64.1,79.8-64.1,79.8z"></path> <path id="path1147" class="st0" d="M67.2-6.1c-28.1,0-44.8,21.4-44.8,44.3c0,26.1,20.3,43.9,44.9,43.9c23.9,0,44.9-17,44.9-43.4 C112.1,9.7,90.2-6.1,67.2-6.1z M67.4,21.1c9.9,0,16.8,8.3,16.8,17.1c0,7.5-6.4,16.8-16.8,16.8c-9.5,0-16.7-7.6-16.7-16.9 C50.8,29.2,56.7,21.1,67.4,21.1z"></path> <path id="path1153" class="st0" d="M161.8-6.1c-28.1,0-44.8,21.4-44.8,44.3c0,26.1,20.3,43.9,44.9,43.9c23.9,0,44.9-17,44.9-43.4 C206.7,9.7,184.8-6.1,161.8-6.1z M162,21.1c9.9,0,16.8,8.3,16.8,17.1c0,7.5-6.4,16.8-16.8,16.8c-9.5,0-16.7-7.6-16.7-16.9 C145.4,29.2,151.3,21.1,162,21.1z"></path> <path id="path1155" class="st0" d="M230.3,42c10.9,0,19.8,8.9,19.8,19.8s-8.9,19.8-19.8,19.8c-10.9,0-19.8-8.9-19.8-19.8 S219.3,42,230.3,42z"></path> <path id="path1157" class="st0" d="M256.5,34.7h-35.6l31.6-75.9H288L256.5,34.7z"></path> </g> </svg> 